<svg width="60" height="36.62" viewBox="0 0 1070 653" fill="none" xmlns="http://www.w3.org/2000/svg">
<g clip-path="url(#clip0_140_17835)">
<path d="M278.324 400.893L183.736 602.198C179.681 610.979 177.654 619.761 177.654 626.516C177.654 639.351 183.736 648.134 193.873 651.511H117.531C139.81 644.081 160.083 621.787 170.22 600.17L330.36 256.378L485.747 587.337C499.262 616.384 510.075 640.703 533.727 651.511H378.318C385.076 648.809 387.78 644.08 387.78 639.351C387.78 632.596 383.725 624.489 379.67 616.383L278.324 400.893Z" fill="#E5ABB5"/>
<path d="M461.058 193.379C475.452 191.578 496.604 154.426 484.215 124.928C454.525 54.4491 394.132 9.63803 276.522 13.9163C193.738 16.8435 79.6647 105.337 90.5674 248.546C105.39 443.095 461.868 610.399 460.359 635.168H389.717C390.821 552.98 0.0117188 430.035 0.0117188 246.295C0.0117188 99.0319 138.909 4.68599 280.892 -0.0426282C375.615 -3.19504 494.397 48.1438 519.784 117.722C542.31 179.419 495.568 219.724 461.058 193.379Z" fill="#E5ABB5"/>
<path d="M791.079 400.893L885.667 602.198C889.722 610.979 891.749 619.761 891.749 626.516C891.749 639.351 885.667 648.134 875.53 651.511H951.872C929.593 644.081 909.32 621.787 899.183 600.17L739.043 256.378L583.656 587.337C570.141 616.384 559.328 640.703 535.676 651.511H691.085C684.327 648.809 681.623 644.08 681.623 639.351C681.623 632.596 685.678 624.489 689.733 616.383L791.079 400.893Z" fill="#E5ABB5"/>
<path d="M608.345 193.379C593.951 191.578 572.799 154.426 585.188 124.928C614.878 54.4491 675.271 9.63803 792.881 13.9163C875.665 16.8435 989.738 105.337 978.836 248.546C964.013 443.095 607.535 610.399 609.044 635.168H679.686C678.582 552.98 1069.39 430.035 1069.39 246.295C1069.39 99.0319 930.494 4.68599 788.511 -0.0426282C693.788 -3.19504 575.006 48.1438 549.619 117.722C527.093 179.419 573.835 219.724 608.345 193.379Z" fill="#E5ABB5"/>
</g>
<defs>
<clipPath id="clip0_140_17835">
<rect width="1070" height="653" fill="white"/>
</clipPath>
</defs>
</svg>
