<svg width="312" height="19" viewBox="0 0 312 19" fill="none" xmlns="http://www.w3.org/2000/svg">
<g clip-path="url(#clip0_193_35663)">
<path d="M158.521 14.1113C158.333 14.1638 158.219 14.3505 158.115 14.5163C158.01 14.6823 157.867 14.8582 157.671 14.866C157.556 14.8706 157.448 14.8138 157.346 14.7589C157.155 14.6552 156.963 14.5515 156.772 14.4478C156.498 14.299 156.224 14.1502 155.96 13.9851C155.655 13.795 155.364 13.5826 155.041 13.4261C154.671 13.2474 154.271 13.1468 153.872 13.0468C153.66 12.9934 153.393 13.0471 153.176 13.0817C153.071 13.0311 152.947 13.0854 152.842 13.1388C151.862 13.6416 150.891 14.1632 149.931 14.7036C149.515 14.9379 149.096 15.178 148.636 15.3042C148.175 15.4308 147.661 15.4329 147.242 15.2045C147.018 15.0823 146.833 14.9021 146.651 14.7237C146.331 14.4104 145.987 14.0419 146 13.594C146.006 13.4015 146.079 13.2184 146.134 13.0339C146.258 12.6169 146.324 12.1187 146.697 11.8959C146.934 11.7539 147.23 11.7709 147.501 11.7132C147.759 11.6579 147.997 11.5332 148.23 11.4098C148.703 11.1604 149.175 10.911 149.646 10.6619C149.921 10.5169 150.199 10.3706 150.498 10.2869C150.67 10.2394 150.846 10.2129 151.019 10.1731C151.423 10.0805 151.82 10.036 152.201 9.87398C152.006 9.88108 151.821 9.77522 151.689 9.63232C151.558 9.48941 151.471 9.31164 151.388 9.13571C151.246 8.83448 151.111 8.5283 151.03 8.20546C150.972 7.97089 150.943 7.73015 150.914 7.48972C150.878 7.1925 150.842 6.89497 150.806 6.59713C150.767 6.27491 150.728 5.95052 150.744 5.62583C150.76 5.31256 150.827 5.00423 150.867 4.69281C150.904 4.40947 150.918 4.12305 150.968 3.84188C151.088 3.17305 151.405 2.49527 151.214 1.84342C151.502 2.11348 151.93 2.16317 152.271 2.36101C152.479 2.48169 152.651 2.65546 152.812 2.83447C152.883 2.9141 152.954 2.99805 152.988 3.09929C153.023 3.20052 153.077 3.44311 153.001 3.5175C153.6 2.69898 154.261 1.92459 154.989 1.2178C155.441 0.778297 155.941 0.352988 156.547 0.181692C156.691 0.141259 156.844 0.115642 156.991 0.144963C157.264 0.199284 157.463 0.428297 157.636 0.646507C158.605 1.86657 159.505 3.29682 159.806 4.82521C159.818 4.48015 160.048 4.18571 160.276 3.92676C160.529 3.64064 160.792 3.3641 161.066 3.09836C161.592 2.5891 162.186 2.10361 162.901 1.94805C163.048 1.91626 163.231 1.91256 163.314 2.03725C163.39 2.14959 163.34 2.29929 163.298 2.42799C163.159 2.84651 163.128 3.30021 163.207 3.73385C163.313 4.32027 163.618 4.87521 163.6 5.47089C163.59 5.83139 163.461 6.17737 163.313 6.50639C163.174 6.81873 163.016 7.12552 162.797 7.38787C162.53 7.70762 162.185 7.95022 161.883 8.23602C161.58 8.52182 161.345 8.96009 161.299 9.37367C161.643 9.0746 162.084 8.88941 162.539 8.8533C162.774 8.83478 163.016 8.85423 163.242 8.7854C163.694 8.64713 163.99 8.18509 164.442 8.04713C164.913 7.90299 165.408 8.14867 165.84 8.38694C165.088 8.67429 164.661 9.53386 163.905 9.81071C163.54 9.94466 163.136 9.91225 162.755 9.99312C162.269 10.0971 161.839 10.3832 161.469 10.7147C161.098 11.0465 160.775 11.4274 160.413 11.7694C160.186 11.9851 159.941 12.1885 159.767 12.4493C159.644 12.6329 159.56 12.8397 159.459 13.0363C159.245 13.4552 158.975 13.9851 158.521 14.1113Z" fill="#FFDAFF"/>
<path d="M151.542 4.08469C151.62 4.34086 151.625 4.61246 151.631 4.88006C151.646 5.44333 151.677 6.01 151.806 6.55815C151.936 7.1066 152.171 7.63963 152.552 8.05506C152.249 7.21 152.097 6.31185 152.103 5.41463C152.105 5.08098 152.13 4.74703 152.109 4.4137C152.066 3.69425 151.82 3.00475 151.576 2.32666C151.729 2.5103 151.826 2.7316 151.922 2.95012C152.055 3.25012 152.187 3.55012 152.319 3.85012C152.444 4.13345 152.57 4.42172 152.606 4.72913C152.649 4.44487 152.693 4.15753 152.798 3.89024C152.904 3.62234 153.078 3.37234 153.326 3.22882C153.378 3.30876 153.34 3.50135 153.307 3.59055C152.88 4.04178 152.694 4.67944 152.675 5.30043C152.655 5.92142 152.785 6.53654 152.915 7.14426C152.966 7.38222 153.017 7.62203 153.114 7.84549C153.355 8.3992 153.854 8.79642 154.366 9.11741C154.878 9.43839 155.427 9.71123 155.868 10.1242C156.267 10.4967 156.563 10.9773 156.717 11.5001C156.907 12.1461 156.901 12.8865 157.335 13.4017C157.65 13.7754 158.031 14.1075 158.014 14.5961C158.011 14.6677 158.002 14.7418 157.965 14.8026C157.87 14.9554 157.633 14.9529 157.487 14.8489C157.34 14.7452 157.259 14.5751 157.172 14.4177C156.789 13.7168 156.188 13.1375 155.473 12.7807C155.753 12.7671 156.036 12.8146 156.296 12.9186C156.486 12.9949 156.674 13.1026 156.878 13.0986C156.899 12.9813 156.794 12.8835 156.698 12.8131C156.184 12.4353 155.628 12.1146 155.044 11.8591C154.615 11.672 154.164 11.518 153.697 11.4973C154.538 11.56 155.346 11.9807 155.88 12.6338C155.169 12.9828 154.265 12.5927 153.546 12.9233C153.259 13.0544 153.035 13.2865 152.785 13.4782C152.534 13.6711 152.254 13.8242 151.982 13.9875C151.472 14.293 150.985 14.6369 150.527 15.0146C150.384 15.1325 150.243 15.2541 150.091 15.3612C149.61 15.7011 149.022 15.8869 148.432 15.885C147.927 15.8838 147.405 15.5563 147.044 15.2029C146.682 14.8495 146.419 14.4078 146.194 13.9554C146.322 14.193 146.646 14.2708 146.897 14.3693C147.149 14.4677 147.419 14.506 147.687 14.543C147.962 14.5819 148.239 14.6205 148.517 14.6177C149.572 14.6078 150.531 14.0122 151.344 13.3406C151.626 13.1078 151.909 12.8575 152.257 12.7455C152.483 12.6727 152.724 12.6625 152.951 12.5943C152.792 12.5406 152.654 12.4291 152.485 12.4208C152.251 12.4091 152.017 12.3973 151.783 12.4081C150.68 12.4594 149.668 13.0051 148.7 13.5378C149.725 12.7412 150.896 12.1332 152.137 11.7535C151.779 11.6838 151.405 11.6955 151.053 11.7878C150.746 11.8683 150.457 12.0078 150.155 12.1038C149.826 12.2078 149.482 12.2606 149.164 12.393C148.884 12.5097 148.632 12.6853 148.383 12.8597C147.913 13.1881 147.44 13.5193 147.047 13.9356C147.191 13.4902 147.622 13.2162 147.973 12.9057C148.285 12.6291 148.549 12.3014 148.858 12.0211C149.577 11.3686 150.545 10.9955 151.517 10.9961C151.534 10.9455 151.447 10.8924 151.393 10.8933C151.155 10.8964 150.917 10.9001 150.679 10.9032C150.436 10.9069 150.19 10.9106 149.956 10.9754C149.716 11.0421 149.497 11.1699 149.285 11.3011C148.884 11.5495 148.492 11.8143 148.112 12.0952C149.012 11.1066 150.276 10.5353 151.538 10.0952C151.762 10.0174 151.996 9.94148 152.23 9.97296C152.43 9.99981 152.611 10.1023 152.785 10.2044C152.938 10.2946 153.209 10.1106 153.316 9.96833C152.9 9.6742 152.476 9.37111 152.189 8.95043C152.078 8.78685 151.99 8.60907 151.902 8.4316C151.766 8.15599 151.628 7.87543 151.578 7.57173C151.536 7.32389 151.556 7.07049 151.544 6.81956C151.514 6.20074 151.296 5.5816 151.416 4.97388C151.462 4.74271 151.556 4.50444 151.486 4.27913" fill="#EFBFEF"/>
<path d="M158.905 13.1642C158.876 13.4238 158.603 13.6105 158.342 13.5997C158.081 13.5889 157.847 13.4198 157.694 13.2077C157.542 12.9957 157.457 12.7432 157.376 12.4951C157.112 11.6809 156.846 10.833 156.268 10.2028C155.837 9.73303 155.262 9.42007 154.793 8.98859C153.972 8.23427 153.506 7.11019 153.552 5.99692C153.606 4.67346 154.328 3.48457 154.759 2.23179C154.494 2.91482 154.227 3.61204 154.188 4.34352C154.155 4.96297 154.289 5.5784 154.436 6.18087C154.549 6.64198 154.671 7.10093 154.793 7.55988C154.834 7.71297 154.877 7.87038 154.972 7.99692C155.067 8.12346 155.229 8.2139 155.383 8.17809C155.354 7.81019 155.253 7.45217 155.174 7.09167C154.752 5.16605 154.951 3.10895 155.736 1.30062C155.339 3.23488 155.361 5.25433 155.801 7.17933C155.894 7.5855 156.057 8.04661 156.452 8.18056C156.517 8.20248 156.588 8.2139 156.655 8.1963C156.882 8.13612 156.899 7.82315 156.865 7.59075C156.558 5.4892 156.124 3.36605 156.39 1.25895C156.56 3.75278 157.056 6.22439 157.859 8.59136C157.927 8.79044 158.071 9.03272 158.275 8.98334C158.431 8.94569 158.492 8.75834 158.509 8.59877C158.555 8.18241 158.488 7.76235 158.411 7.35031C158.196 6.19044 157.906 5.04445 157.542 3.92223C157.905 4.85463 158.267 5.78704 158.63 6.71945C158.207 4.82963 157.784 2.93334 157.114 1.11605C157.961 3.09074 158.81 5.07439 159.364 7.15062C159.344 6.31513 159.232 5.48149 159.032 4.67007C159.501 5.42068 159.759 6.30186 159.767 7.18704C159.779 8.45587 159.295 9.6713 158.801 10.8398C158.558 11.413 158.305 12.021 158.393 12.637C158.422 12.8395 158.534 13.0747 158.739 13.0821C159.29 11.4772 159.749 9.84044 160.114 8.18303C160.194 7.81852 160.269 7.44785 160.247 7.07562C160.227 6.7642 160.139 6.46112 160.035 6.16636C159.753 5.36451 159.356 4.60834 158.961 3.85556C158.577 3.12439 158.192 2.39321 157.808 1.66173C157.497 1.06945 157.178 0.466667 156.699 0C157.497 0.479321 158.017 1.30864 158.439 2.13889C158.863 2.96883 159.278 3.87284 159.893 4.57284C159.764 4.45 159.871 4.23611 159.985 4.1C160.73 3.21204 161.709 2.52192 162.796 2.11852C162.889 2.08395 162.996 2.05278 163.082 2.10124C163.176 2.15463 163.201 2.28642 163.166 2.38889C163.131 2.49167 163.052 2.57253 162.977 2.65093C162.363 3.29877 161.864 4.05618 161.512 4.87686C161.419 5.09507 161.418 5.38982 161.438 5.62624C161.417 5.46791 161.533 5.32809 161.642 5.21081L162.079 4.73766C162.351 4.44383 162.647 4.13581 163.036 4.04352C162.652 4.98612 162.268 5.92871 161.885 6.8713C162.33 6.18488 162.662 5.4318 162.991 4.68241C162.994 5.52747 162.628 6.33056 162.194 7.05618C161.761 7.78211 161.251 8.4676 160.918 9.24414C160.869 9.35587 160.825 9.47964 160.859 9.5963C160.784 9.64044 160.686 9.72717 160.641 9.80124C160.596 9.87563 160.596 9.98581 160.666 10.038C160.755 10.1053 160.881 10.0392 160.971 9.97285C161.386 9.66884 161.838 9.32593 162.35 9.3639C162.539 9.37809 162.719 9.44445 162.905 9.48211C163.176 9.53735 163.456 9.53087 163.734 9.52439C163.82 9.52254 163.908 9.52007 163.99 9.49137C164.066 9.4642 164.133 9.41544 164.197 9.36544C164.469 9.15402 164.719 8.9139 165.007 8.72408C165.294 8.53457 165.631 8.39538 165.975 8.41883C165.638 8.47038 165.407 8.7713 165.156 9.00217C164.965 9.1784 164.746 9.32161 164.528 9.4639C164.287 9.62192 164.045 9.77995 163.804 9.93766C163.729 9.98705 163.649 10.0377 163.56 10.0454C163.472 10.0528 163.387 10.0179 163.303 9.99106C162.79 9.82748 162.235 9.95988 161.713 10.0929C161.546 10.1355 161.375 10.1793 161.23 10.2719C161.041 10.392 160.91 10.583 160.78 10.7661C160.229 11.5472 159.589 12.4951 158.905 13.1642Z" fill="#EFBFEF"/>
<path d="M154.704 13.0284C154.489 12.9337 154.26 12.8485 154.025 12.8633C153.72 12.8821 153.453 13.0652 153.204 13.2417C153.034 13.3618 152.864 13.4818 152.695 13.6019C152.826 13.3636 153.05 13.1911 153.281 13.0466C153.824 12.7062 154.455 12.4803 155.096 12.4929C155.738 12.5059 156.388 12.7778 156.781 13.2849C156.941 13.4914 157.055 13.7294 157.167 13.9652C157.373 14.3976 157.58 14.8297 157.786 15.2621C157.532 14.7297 156.976 14.5111 156.537 14.1979C155.933 13.7676 155.391 13.3306 154.704 13.0284Z" fill="#D698D6"/>
<path d="M158.433 13.7758L158.396 12.9012C158.385 12.6243 158.373 12.3462 158.408 12.0715C158.434 11.8687 158.485 11.6697 158.519 11.4678C158.691 10.4512 158.418 9.39745 158.593 8.38109C158.223 10.0015 158.155 11.6734 158.088 13.3342C158.04 12.0833 157.984 10.7987 157.484 9.65146C157.536 10.3379 157.621 11.0218 157.74 11.6999C157.513 11.1326 157.476 10.4789 157.115 9.98664C157.005 9.83757 156.87 9.70948 156.742 9.57646C155.748 8.54467 155.161 7.13232 155.13 5.70022C155.051 6.58232 155.316 7.4567 155.619 8.2885C155.825 8.85238 156.049 9.40948 156.293 9.95794C156.506 10.4385 156.734 10.9138 156.916 11.407C157.101 11.9095 157.238 12.4299 157.323 12.9586C157.055 12.8545 156.977 12.5212 156.913 12.2404C156.793 11.7147 156.589 11.2086 156.312 10.7462C156.216 10.5866 156.111 10.4314 155.977 10.3024C155.774 10.1058 155.515 9.97955 155.264 9.85022C154.928 9.67708 154.595 9.49035 154.314 9.23695C153.926 8.88572 153.658 8.42368 153.402 7.96627C153.154 7.52245 152.91 7.06936 152.78 6.57769C152.515 5.5746 152.756 4.50145 153.159 3.5459C152.999 4.09775 152.839 4.65454 152.799 5.22738C152.774 5.58973 152.797 5.95331 152.831 6.31504C152.859 6.62275 152.895 6.9317 152.975 7.23016C153.054 7.52306 153.175 7.80269 153.295 8.08109C153.685 8.98603 154.131 9.95455 154.994 10.4299C154.38 10.2076 153.868 9.75609 153.481 9.23016C153.094 8.70393 152.821 8.10362 152.575 7.49899C152.358 6.9672 152.159 6.42862 151.968 5.88757C152.226 7.31288 152.835 8.67306 153.728 9.81442C153.16 9.5243 152.62 9.11411 152.236 8.60547C151.956 8.23541 151.788 7.79436 151.657 7.34961C151.49 6.78047 151.38 6.19467 151.328 5.60362C151.188 6.92152 151.551 8.28633 152.328 9.3601C152.528 9.63695 152.78 9.91072 153.116 9.97615C152.701 10.0817 152.213 10.1728 151.883 9.8993C152.146 10.1237 152.422 10.3545 152.757 10.4376C152.893 10.4712 153.034 10.4792 153.171 10.5076C153.613 10.6002 153.98 10.8981 154.327 11.1866C153.233 11.0354 152.051 11.0746 150.988 11.3749C151.448 11.2635 151.926 11.2533 152.4 11.2437C152.87 11.2345 153.347 11.2255 153.803 11.3403C154.014 11.3937 154.218 11.4731 154.42 11.5539C154.951 11.7663 155.475 11.9934 155.993 12.2345C156.443 12.4444 156.858 12.8024 157.121 13.2237C157.235 13.4067 157.314 13.6101 157.385 13.8141C157.529 14.2271 157.65 14.6542 157.881 15.0262C158.051 14.7175 158.222 14.4086 158.393 14.0999C158.478 13.9465 158.44 13.9508 158.433 13.7758Z" fill="#D698D6"/>
<path d="M163.31 9.92741C163.214 9.93266 163.118 9.9413 163.021 9.94994C162.607 9.98698 162.176 10.0296 161.821 10.2456C161.497 10.4425 161.271 10.7632 160.988 11.0157C160.799 11.1848 160.584 11.3237 160.396 11.4941C159.719 12.1089 159.447 13.0753 158.773 13.6935C158.688 13.466 158.788 13.2172 158.85 12.9824C158.979 12.4876 158.933 11.9607 159.054 11.4638C159.104 11.2533 159.184 11.0515 159.259 10.8487C159.543 10.087 159.771 9.3055 159.998 8.52525C160.105 8.15797 160.213 7.78759 160.242 7.40611C160.267 7.07401 160.237 6.7163 160.413 6.43358C160.504 6.95889 160.5 7.49994 160.404 8.02401C160.488 8.07185 160.52 7.92031 160.577 7.84037C161.164 7.00796 161.732 6.16198 162.281 5.30364C162.138 6.02401 161.68 6.63358 161.301 7.26229C160.941 7.85735 160.644 8.48821 160.36 9.1234C161.464 7.92371 162.582 6.63914 162.987 5.05981C162.814 6.17895 162.241 7.20796 161.5 8.06414C161.271 8.32957 161.016 8.59439 160.922 8.93173C160.856 9.16537 160.873 9.4129 160.89 9.65519L161.521 9.18945C161.172 9.40735 160.869 9.69192 160.592 9.99655C160.091 10.5469 159.669 11.1685 159.343 11.8367C159.798 11.5123 160.121 11.0394 160.469 10.6012C160.816 10.1623 161.221 9.73358 161.752 9.55735C162.058 9.4555 162.394 9.44593 162.709 9.51846C162.946 9.57278 163.174 9.67247 163.416 9.69531C163.787 9.72988 164.147 9.58173 164.49 9.43667C164.65 9.36908 164.823 9.28945 164.899 9.13297C164.85 9.29223 164.685 9.38142 164.536 9.45395C164.188 9.62247 163.841 9.79068 163.493 9.9592C163.428 9.99099 163.383 9.9234 163.31 9.92741Z" fill="#D698D6"/>
<path d="M155.913 18.1187C155.97 18.2134 156.116 18.1625 156.205 18.0977C156.776 17.685 157.214 17.0918 157.441 16.4255C157.522 16.1869 157.577 15.9239 157.497 15.685C157.456 15.5637 157.384 15.4566 157.312 15.3511C157.146 15.1051 156.979 14.8591 156.813 14.6131C156.555 14.2326 156.285 13.7903 156.395 13.344C156.61 13.5677 156.89 13.7177 157.13 13.9137C157.371 14.11 157.583 14.3829 157.579 14.6931C157.861 13.6708 158.694 12.8937 159.49 12.1934C159.386 12.7751 159.282 13.3566 159.177 13.9384C159.136 14.1662 159.095 14.3961 159.002 14.6079C158.831 14.9964 158.503 15.2893 158.25 15.6307C157.971 16.0079 157.785 16.444 157.574 16.8634C157.364 17.2829 157.119 17.6989 156.755 17.9949C156.391 18.2912 155.884 18.4489 155.441 18.2946C155.537 18.1677 155.755 18.1008 155.913 18.1187Z" fill="#BCA698"/>
</g>
<path d="M1 9C0.447715 9 0 9.44772 0 10C0 10.5523 0.447715 11 1 11V9ZM1 11H139V9H1V11Z" fill="#EDB4ED"/>
<path d="M174 9C173.448 9 173 9.44772 173 10C173 10.5523 173.448 11 174 11V9ZM174 11H312V9H174V11Z" fill="#EDB4ED"/>
<defs>
<clipPath id="clip0_193_35663">
<rect width="20" height="18.3704" fill="white" transform="translate(146)"/>
</clipPath>
</defs>
</svg>
